<svg xmlns="http://www.w3.org/2000/svg" width="32" height="32" fill="none" viewBox="0 0 32 32">
  <path fill="url(#paint0_linear_2621_39578)" d="M15.583 31.917h-.501.5zm4.34-.446c.056 0 .168-.055.223-.055h.056c-.112 0-.223.055-.278.055zm1.837-1.39c-.5.333-1.78 1.112-3.506 1.557-1.169.279-2.06.334-2.671.334h1.335c3.673-.445 5.176-1.948 5.176-2.003h-.056c-.055 0-.111 0-.278.111zm1.002-.168a6.746 6.746 0 01-2.56 1.503c.167-.056.39-.112.5-.167l.223-.056c.835-.334.946-.39 1.447-.835l.056-.055.056-.056.055-.056.056-.055.056-.056.055-.056.056-.055.055-.056c.112-.111.112-.111.112-.167.167-.111.055-.055-.167.167zm-15.583-.612c.557.334 1.336.78 1.892 1.057l.223.112c1.447.556 3.84 1.558 7.624.946.223-.056.39-.056.613-.112.167-.055.222-.055.222-.11-.055 0-.167-.057-.445 0h-.946c-1.558.166-5.732.667-9.85-2.227.389.167.556.278.667.334zm-.723-.5c.111.055.222.166.334.222-.223-.167-.501-.39-.668-.501.055.055.222.167.334.278zM32 15.053V15.054v-.111.111zm0-.056c0-.055 0-.055 0 0zm-2.115 7.124c-.222.39-.222.5-.167.556 0 0 2.06-2.17 2.282-5.899v-.445-.557V15.611v-.557c0-.39-.056-.835-.167-1.391.111 1.502.334 4.563-1.948 8.459zm1.948-8.46v-.055l-.055-.334c0 .111.055.278.055.39zm-.055-.389c0-.167-.056-.334-.112-.5l.111.5zM29.94 18.56c-1.002 3.673-2.783 6.01-3.45 6.845-.167.223-.167.278-.223.334.334-.222 4.34-4.619 4.786-10.129.278-3.617-.612-5.899-1.113-7.123.111.835 1.057 6.122 0 10.073zm-.723-11.576l.11.223c.112.167.613 1.447.613 1.447 1.169 2.616 1.78 5.176.946 9.071-.612 2.894-.612 2.894-4.73 8.46.055-.056 6.622-5.288 5.175-14.136-.222-1.169-.612-2.449-1.502-4.063-.279-.445-.668-1.002-.946-1.447l.334.445z"/>
  <path fill="url(#paint1_linear_2621_39578)" d="M.5 19.617c1.67 2.338 8.85 6.957 15.083 8.237h-.167s-.39.056-1.058.056c-2.894 0-11.241-.668-13.857-8.293zM0 15.054v.89c0 .39 0 .724.056 1.002v-.167.39c.055.39.055.668.111.89-.056-.39-.111-.779-.111-1.169.111.557.556 1.726 1.113 2.672l-.056-.056c-.5-.5-.78-.89-.89-1.002 0-.111-.056-.278-.056-.445.056.334.111.78.223 1.28 3.116 11.186 16.584 9.35 17.474 8.292-.055-.167-.055-.167-.5-.278C13.133 26.129.667 22.456.166 14.998l.223-2.393C.11 14.052.056 14.164 0 15.054zM1.725 8.71l-.111.222c-2.95 7.402 11.854 14.692 11.965 14.748.612.223.501-.111-2.393-2.06 0 0-11.576-8.57-9.127-13.523-.056.167-.222.446-.334.613zm27.492-1.726c-.11-.167-.167-.278-.278-.39l.278.39zm-.222-.39l-.056-.11-.111-.112c.056.056.111.167.167.223zm-.223-.277l-.055-.056-.223-.278.278.334zm-.612-.279c1.224 1.892 1.503 3.896 1.725 4.73.056.223.111.279.111.39 0-2.17-.612-3.951-.612-3.951-.556-.835-1.892-2.838-4.508-4.62l-.389-.166c.89.556 2.393 1.67 3.673 3.617zm-3.673-3.617s0-.056 0 0l-.445-.278.445.278zm2.95 6.456c.946 1.892 1.057 7.401 1.224 7.067 1.502-3.561-1.002-12.577-7.068-14.97-.278-.111-.668-.278-1.002-.334-.39-.111-.779-.167-1.168-.278 3.394.835 5.23 2.838 8.014 8.515zM18.698.25c.223.056.445.112.724.112l-.835-.167c.055 0 .111 0 .111.055zm5.231 6.734c-.5-1.113-2.003-3.394-2.67-4.396.277.39 2.503 2.282 3.227 3.895C26.991 10.936 26.49 16.78 25.6 22.4c.111-4.73.167-11.353-1.67-15.416zm-3.95-5.23c5.342 5.787 5.453 22.872 5.453 22.872.056-.056 2.838-8.737.89-15.805C25.155 4.703 20.758.918 18.755.195a19.585 19.585 0 00-1.28-.167c1.057.222.89 0 2.504 1.725z"/>
  <path fill="url(#paint2_linear_2621_39578)" d="M9.628 7.875c1.892 4.285 1.892 4.23 3.172 6.289 1.837 3.005 5.955 7.79 7.012 8.013h.056c.111-.166.223-.222.111-.334C12.021 12.995 9.071 5.148 10.24 5.76c1.057.557 8.292 8.348 11.687 14.97l.612-.333c-2.059-3.952-5.62-8.96-5.62-8.96-4.286-5.733-7.625-7.625-7.625-7.625-.167-.055-.334-.111-.445-.111-.78 0-.445 1.336.779 4.174z"/>
  <path fill="url(#paint3_linear_2621_39578)" d="M16.417 31.972h-.334.334zm-14.08-7.736c-.167-.278-.278-.5-.39-.723.112.278.168.39.39.723zm28.494-2.838c0 .056 0 .056 0 0zm0 0c0 .056.056.056 0 0 .056 0 0 0 0 0zM6.066 20.063s-.5.222-.278 1.28c.222 1.28 1.725 9.906 9.238 10.573h1.058c-.668 0-1.447-.055-2.171-.333h.223l.055-.112c-6.9-2.114-7.68-10.073-7.513-10.407 2.282 2.727 3.618 6.178 6.456 8.57 2.727 2.282 5.231 2.06 6.177 2.004l.613-.111c.222-.056.556-.167.779-.223-1.113.223-4.842-.39-7.013-2.226-1.836-1.558-5.676-7.568-5.676-7.568-.946-1.225-1.224-1.503-1.558-1.503-.112-.056-.223 0-.39.056zm-5.732-.947c-.111-.5-.167-.89-.223-1.28.056.335.112.724.223 1.28zm.445 1.726c-.222-.668-.334-1.225-.445-1.726 0 .112.056.168.056.279v.111l.167.724c.445 1.558.834 2.337 1.335 3.283-.055-.167-.167-.39-.334-.723l-.111-.334c-.668-1.726-.946-3.562-.89-5.399-.279 1.893 0 2.95.222 3.785zm-.723-3.673v-.167.167zM0 16.779V16.724v.055zm0-.946c0 .89.056 1.447.111 1.948-.055-.557-.055-.946-.055-1.336 0-.055 0-.5-.056-.723v.111zm16.751 2.004s1.614 3.339 2.616 4.841c1.002 1.503 4.508 6.4 5.51 6.567h.055c.112-.111.223-.278.334-.39-5.788-7.68-6.122-8.57-7.235-11.686 6.4 6.455 8.07 10.407 7.903 11.353.39-.334.779-.334.5-1.336-1.112-2.95-3.283-6.233-3.283-6.233-3.561-4.508-6.177-6.233-6.233-6.233-.167-.056-.278-.056-.39-.056-.778-.055-.611.947.223 3.173zm15.193-3.006v-.278c0-.223-.055-.445-.111-.78.056.335.111.669.111 1.058zM2.727 24.46c.278.612.668 1.392 2.282 3.117.278.278.723.668 1.057.946.334.278.78.556 1.113.779.557.334 1.336.779 1.892 1.057-2.226-1.224-4.563-2.894-6.288-6.79 0 0-2.06-3.672-1.225-11.297 0 .056-1.78 6.233 1.169 12.188zM.39 12.494l-.056.167c-.167.89-.167.946-.334 2.393l.946-4.118c0 .055-.167.222-.556 1.558zm.39-1.503c.055-.111.055-.222.11-.334 0 .112-.055.223-.11.334zm.945-2.281l.112-.167a.689.689 0 01-.112.167zm28.105-.835c-.056-.112-.112-.223-.223-.334l.223.334zm-.223-.334l-.111-.167c0-.056-.056-.056-.056-.111.056.11.111.167.167.278zM3.339 12.104c.111-.39.557-2.114.612-2.56 0 0-4.118 5.955-1.001 13.97 1.78 4.284 5.23 6.733 7.902 7.512h.056c-.056 0-.056-.055-.111-.055-.835-.334-1.503-.668-2.45-1.336.446.278.669.278.724.278 0-.056 0-.056-.334-.334-1.725-1.28-4.062-3.784-5.287-8.292 0 0-1.892-6.79 2.505-14.303 0 .112-1.837 2.17-2.616 5.12zM2.282 7.708l-.167.278-.278.557a5.8 5.8 0 011.558-1.781C2.17 7.93 1.67 8.932 1.28 9.767l-.056.111c-.111.223-.167.501-.278.724A10.554 10.554 0 014.118 6.26c.279-.223.279-.278.279-.278-.056.055-1.17.445-2.115 1.725zM27.77 5.092l-.11-.055c.055 0 .055.055.11.055zm-4.953 0l1.559 1.058C31.11 10.38 32 14.664 32 16.334v.334-.39c0-1.113.056-4.174-2.282-7.179-1.502-1.948-3.283-3.005-3.506-3.116-1.725-1.002-2.95-1.392-3.506-1.392-.278 0-.334.167.111.501zm-6.177-.5a.862.862 0 00-.445.11c-.056.056-.111.279 0 .279 5.231 2.059 10.908 7.346 10.908 7.346 4.285 4.897 3.895 8.626 3.784 9.071 0-.055.056-.055.056-.111l.055-.056c.112-.334.167-.39.223-.89 0 .223.223-.946 0-2.838l-.223-1.002C28.048 9.433 18.866 4.59 16.64 4.59zm9.795-.335c0 .056 0 .167.278.446 1.224 1.28 4.174 4.34 5.009 8.57.055.167.055.334.111.5-.39-2.837-1.447-5.397-4.452-8.68.89.667 1.614 1.613 2.003 2.17-.167-.279-.39-.557-.5-.78-1.614-2.17-2.338-2.226-2.45-2.226zm-.78-1.057s.056 0 .056.056l-.055-.056zM19.59.362a9.06 9.06 0 00-1.726-.167c-4.452 0-8.125 2.782-8.18 2.782 2.838-1.057 4.118-1.502 7.568-1.613 3.117 0 7.402.556 10.407 3.673A14.845 14.845 0 0025.6 3.2C21.816.696 17.642.751 14.803 1.197c-1.335.222-2.281.556-2.67.667.333-.167.556-.222.89-.39 3.116-1 7.847-1.557 12.521 1.67-.278-.222-.556-.39-.779-.556-1.224-.78-2.95-1.837-6.233-2.115H17.586c-.668.056-1.28.056-1.948.167 2.17-.445 3.34-.39 5.12.056L20.591.64c-.445-.111-.723-.223-1.001-.278-.613-.167-1.058-.223-1.726-.279.78.112 1.225.167 1.726.279z"/>
  <path fill="url(#paint4_linear_2621_39578)" d="M21.036 11.047c-1.224 0 .724 2.838 1.614 4.174 1.225 1.78 4.453 6.456 4.953 9.739 0 0 .334 1.558-.11 2.226 1-1.558 1.446-4.786-4.175-12.689-1.224-1.725-1.224-1.725-1.28-2.003 7.402 4.007 8.125 8.57 7.458 11.687l.055-.111c2.505-5.733-4.563-10.964-4.563-10.964-2.226-1.502-3.395-2.059-3.952-2.059z"/>
  <path fill="url(#paint5_linear_2621_39578)" d="M9.739 16.78l.39 1.669c2.838 7.68 7.346 11.241 10.74 12.243l.668.111h.112c.11 0 .222-.055.334-.11l.055-.056c.056-.056.111-.112.111-.168-3.784-.556-11.52-8.626-12.132-17.975C14.358 22.233 20.703 31.47 24.21 29.69l.055-.055.111-.112c-1.78-.11-3.394-1.725-5.23-4.118L13.3 17.002c-1.726-2.894-2.56-4.564-2.95-5.454-.111-.278-.222-.668-.445-.89-.056-.056-.111-.056-.111-.056-.557.055-.724 2.671-.056 6.177z"/>
  <defs>
    <linearGradient id="paint0_linear_2621_39578" x1="9.27" x2="27.748" y1="80.946" y2="-28.963" gradientUnits="userSpaceOnUse">
      <stop stop-color="#0066A9"/>
      <stop offset=".444" stop-color="#3C95C0"/>
      <stop offset="1" stop-color="#8DD4DF"/>
    </linearGradient>
    <linearGradient id="paint1_linear_2621_39578" x1="7.616" x2="17.133" y1="56.788" y2=".178" gradientUnits="userSpaceOnUse">
      <stop stop-color="#0066A9"/>
      <stop offset=".444" stop-color="#3C95C0"/>
      <stop offset="1" stop-color="#8DD4DF"/>
    </linearGradient>
    <linearGradient id="paint2_linear_2621_39578" x1="16.696" x2="17.021" y1="22.151" y2="3.886" gradientUnits="userSpaceOnUse">
      <stop stop-color="#0066A9"/>
      <stop offset=".067" stop-color="#1778B2"/>
      <stop offset=".194" stop-color="#3B94BF"/>
      <stop offset=".327" stop-color="#59ABCB"/>
      <stop offset=".467" stop-color="#70BDD4"/>
      <stop offset=".617" stop-color="#80CADA"/>
      <stop offset=".783" stop-color="#8AD2DE"/>
      <stop offset="1" stop-color="#8DD4DF"/>
    </linearGradient>
    <linearGradient id="paint3_linear_2621_39578" x1="16.009" x2="16.009" y1="31.951" y2=".062" gradientUnits="userSpaceOnUse">
      <stop stop-color="#BAD34D"/>
      <stop offset=".266" stop-color="#8CC352"/>
      <stop offset=".77" stop-color="#38A65A"/>
      <stop offset="1" stop-color="#179A5D"/>
    </linearGradient>
    <linearGradient id="paint4_linear_2621_39578" x1="26.713" x2="24.609" y1="27.295" y2="10.596" gradientUnits="userSpaceOnUse">
      <stop stop-color="#BAD34D"/>
      <stop offset=".266" stop-color="#8CC352"/>
      <stop offset=".77" stop-color="#38A65A"/>
      <stop offset="1" stop-color="#179A5D"/>
    </linearGradient>
    <linearGradient id="paint5_linear_2621_39578" x1="17.029" x2="16.567" y1="30.892" y2="10.473" gradientUnits="userSpaceOnUse">
      <stop stop-color="#BAD34D"/>
      <stop offset=".266" stop-color="#8CC352"/>
      <stop offset=".77" stop-color="#38A65A"/>
      <stop offset="1" stop-color="#179A5D"/>
    </linearGradient>
  </defs>
</svg>
